<?xml version="1.0" standalone="no"?>
<!DOCTYPE svg PUBLIC "-//W3C//DTD SVG 20010904//EN"
 "http://www.w3.org/TR/2001/REC-SVG-20010904/DTD/svg10.dtd">
<svg version="1.0" xmlns="http://www.w3.org/2000/svg"
 width="256.000000pt" height="256.000000pt" viewBox="0 0 256.000000 256.000000"
 preserveAspectRatio="xMidYMid meet">
<metadata>
Created by potrace 1.14, written by Peter Selinger 2001-2017
</metadata>
<g transform="translate(0.000000,256.000000) scale(0.100000,-0.100000)"
fill="#000000" stroke="none">
<path d="M1238 2544 c-6 -12 -4 -21 12 -73 13 -42 13 -46 -14 -95 -25 -47 -28
-59 -22 -112 6 -48 3 -68 -14 -106 -15 -35 -20 -65 -19 -115 1 -38 -4 -81 -10
-97 -7 -17 -9 -46 -5 -70 12 -75 1 -102 -58 -132 -52 -27 -90 -18 -135 30 -27
30 -59 51 -99 66 -65 24 -89 42 -109 81 -13 25 -63 52 -119 64 -15 3 -37 16
-47 28 -72 87 -79 93 -132 110 -30 9 -62 26 -72 37 -10 11 -21 17 -25 15 -16
-10 3 -45 37 -71 22 -16 45 -49 60 -83 15 -35 45 -75 78 -107 29 -28 62 -69
73 -91 12 -22 31 -47 44 -55 13 -9 34 -38 48 -64 14 -27 41 -67 62 -89 20 -22
41 -51 46 -65 20 -55 -30 -133 -85 -132 -15 0 -50 -9 -76 -21 -44 -18 -53 -19
-101 -7 -45 11 -61 10 -102 -3 -27 -8 -65 -14 -84 -12 -25 2 -47 -5 -75 -23
-34 -23 -52 -27 -115 -28 -56 -1 -85 -7 -115 -23 -21 -11 -45 -21 -53 -21 -7
0 -10 -5 -7 -10 3 -6 32 -9 64 -9 40 1 66 -4 85 -16 19 -13 44 -18 82 -16 32
1 66 -5 84 -14 31 -16 82 -19 115 -6 13 6 33 2 60 -12 22 -11 60 -21 85 -22
25 0 62 -7 83 -14 21 -7 53 -10 71 -7 18 4 41 4 50 0 24 -9 46 -57 46 -102 0
-43 -18 -71 -86 -134 -27 -25 -49 -58 -61 -90 -12 -33 -32 -63 -60 -88 -26
-22 -48 -53 -57 -81 -10 -27 -30 -56 -55 -77 -28 -23 -45 -48 -57 -85 -9 -28
-30 -65 -46 -80 -16 -15 -26 -32 -23 -36 11 -19 48 4 92 55 33 38 71 66 134
100 64 34 101 61 133 99 35 40 58 57 105 74 46 17 69 33 101 71 56 67 89 76
153 43 38 -19 56 -66 50 -129 -4 -39 0 -61 16 -93 16 -30 20 -54 18 -93 -3
-38 2 -67 19 -108 18 -45 22 -68 17 -113 -3 -33 -1 -68 6 -84 6 -15 13 -47 15
-69 2 -23 9 -51 15 -62 6 -11 11 -30 11 -41 0 -12 4 -21 10 -21 11 0 24 44 17
62 -2 7 3 36 11 63 8 28 14 65 14 84 -1 18 9 56 22 83 25 52 27 88 6 154 -12
39 -11 46 15 100 20 42 29 79 32 129 6 109 22 135 97 156 28 8 34 5 79 -42 26
-28 68 -59 92 -69 24 -10 62 -36 83 -57 87 -83 127 -114 161 -123 45 -12 49
-16 89 -67 28 -36 41 -43 90 -53 31 -7 69 -16 84 -20 31 -10 46 4 26 23 -8 6
-27 19 -43 27 -17 9 -40 34 -53 60 -12 25 -36 58 -52 73 -17 16 -41 49 -54 75
-13 26 -38 61 -56 77 -18 17 -39 47 -47 68 -8 20 -28 48 -43 61 -16 13 -36 40
-44 61 -9 20 -30 53 -47 73 -26 30 -30 41 -25 71 8 56 45 81 116 81 41 0 69 6
94 20 27 17 44 20 83 14 29 -3 67 -1 93 7 25 7 70 13 100 14 30 1 71 6 90 13
19 6 55 10 80 8 30 -2 59 4 85 17 22 11 51 23 65 27 l25 7 -28 13 c-21 10 -35
11 -63 2 -32 -10 -43 -8 -88 15 -39 20 -64 26 -106 25 -30 -1 -77 6 -103 14
-45 15 -76 15 -136 0 -14 -3 -39 3 -61 14 -30 15 -56 19 -115 17 -74 -2 -77
-1 -104 29 -40 44 -48 96 -21 139 12 19 29 37 39 40 10 3 26 24 36 48 37 90
48 106 89 126 64 31 92 61 116 125 11 33 32 69 44 80 32 28 43 54 44 100 2 40
33 86 59 86 7 0 13 4 13 9 0 10 -66 8 -90 -3 -8 -4 -26 -22 -40 -41 -14 -19
-45 -44 -70 -55 -25 -12 -56 -27 -70 -33 -14 -7 -35 -33 -47 -59 -27 -57 -59
-83 -131 -103 -65 -19 -87 -36 -112 -86 -30 -57 -52 -70 -118 -70 -60 1 -92
33 -99 100 -2 18 -10 49 -18 68 -14 32 -13 50 5 121 0 1 -11 25 -25 52 -21 41
-24 57 -17 83 12 41 6 76 -17 107 -39 54 -42 66 -26 110 8 23 13 53 11 66 -8
41 -17 64 -26 64 -4 0 -17 14 -28 31 -11 17 -21 27 -24 23z"/>
</g>
</svg>
