<?xml version="1.0" standalone="no"?>
<!DOCTYPE svg PUBLIC "-//W3C//DTD SVG 20010904//EN"
 "http://www.w3.org/TR/2001/REC-SVG-20010904/DTD/svg10.dtd">
<svg version="1.0" xmlns="http://www.w3.org/2000/svg"
 width="512.000000pt" height="512.000000pt" viewBox="0 0 512.000000 512.000000"
 preserveAspectRatio="xMidYMid meet">
<metadata>
Created by potrace 1.14, written by Peter Selinger 2001-2017
</metadata>
<g transform="translate(0.000000,512.000000) scale(0.100000,-0.100000)"
fill="#000000" stroke="none">
<path d="M2516 5004 c-66 -13 -103 -34 -144 -79 -61 -66 -83 -178 -51 -259 12
-31 81 -127 127 -176 87 -95 84 -203 -8 -264 l-39 -26 -753 0 c-717 -1 -805
-2 -854 -14 -12 -3 -39 -8 -60 -12 -21 -3 -73 -19 -114 -35 -287 -110 -498
-353 -582 -667 -22 -84 -30 -280 -15 -381 20 -139 105 -327 197 -435 66 -78
116 -120 555 -478 142 -115 181 -182 173 -301 -6 -98 -33 -141 -196 -305 -81
-81 -159 -163 -173 -182 -38 -53 -60 -117 -63 -189 -8 -172 105 -323 274 -365
30 -8 183 -12 463 -11 l417 0 11 -35 c23 -71 102 -229 112 -223 6 3 7 1 3 -5
-8 -14 81 -133 152 -200 91 -88 221 -167 335 -206 159 -54 376 -59 530 -12
147 44 255 107 369 215 117 110 221 272 264 413 l17 53 371 0 c204 0 395 3
424 8 181 27 311 194 297 381 -6 78 -20 109 -145 326 -128 222 -158 281 -175
346 -20 75 -20 202 0 278 34 128 88 200 296 391 36 33 121 112 189 175 280
257 327 314 372 445 26 77 32 228 12 305 -24 92 -79 193 -141 257 -50 52 -198
152 -348 238 -84 48 -559 340 -596 367 -93 67 -106 210 -26 295 64 68 51 66
579 67 345 1 480 4 488 12 21 21 2 47 -123 172 -115 114 -126 122 -163 122
-813 6 -2218 3 -2258 -6z"/>
<path d="M20 2343 c-37 -47 -13 -118 44 -128 43 -9 74 8 91 48 24 57 -11 106
-77 107 -28 0 -41 -6 -58 -27z"/>
<path d="M343 2145 c-17 -7 -34 -18 -38 -25 -4 -7 -8 -53 -9 -104 l-2 -91 -69
-2 c-53 -1 -73 -6 -88 -21 -30 -30 -31 -75 -2 -106 21 -23 32 -26 90 -26 45 0
65 -4 66 -12 1 -7 3 -44 4 -83 3 -96 3 -93 25 -115 27 -27 81 -26 106 1 15 17
20 40 22 115 l4 94 68 0 c62 0 70 2 89 26 28 36 27 75 -3 103 -20 19 -36 23
-89 24 l-65 1 -4 92 c-2 71 -7 96 -21 112 -25 27 -48 32 -84 17z"/>
</g>
</svg>
